<svg xmlns:dc="http://purl.org/dc/elements/1.1/" xmlns:cc="http://creativecommons.org/ns#" xmlns:rdf="http://www.w3.org/1999/02/22-rdf-syntax-ns#" xmlns:svg="http://www.w3.org/2000/svg" xmlns="http://www.w3.org/2000/svg" xmlns:sodipodi="http://sodipodi.sourceforge.net/DTD/sodipodi-0.dtd" xmlns:inkscape="http://www.inkscape.org/namespaces/inkscape" viewBox="0 0 6.6145832 8.268229375" version="1.1" x="0px" y="0px"><g transform="translate(0,-290.38541)"><rect style="display:inline;opacity:1;vector-effect:none;fill:none;fill-opacity:1;stroke:none;stroke-width:0.02645833;stroke-linecap:round;stroke-linejoin:round;stroke-miterlimit:4;stroke-dasharray:none;stroke-dashoffset:0;stroke-opacity:1;paint-order:normal" width="6.614584" height="6.6145902" x="-1.5441895e-08" y="290.38541"/><path style="color:#000000;font-style:normal;font-variant:normal;font-weight:normal;font-stretch:normal;font-size:medium;line-height:normal;font-family:sans-serif;font-variant-ligatures:normal;font-variant-position:normal;font-variant-caps:normal;font-variant-numeric:normal;font-variant-alternates:normal;font-feature-settings:normal;text-indent:0;text-align:start;text-decoration:none;text-decoration-line:none;text-decoration-style:solid;text-decoration-color:#000000;letter-spacing:normal;word-spacing:normal;text-transform:none;writing-mode:lr-tb;direction:ltr;text-orientation:mixed;dominant-baseline:auto;baseline-shift:baseline;text-anchor:start;white-space:normal;shape-padding:0;clip-rule:nonzero;display:inline;overflow:visible;visibility:visible;opacity:1;isolation:auto;mix-blend-mode:normal;color-interpolation:sRGB;color-interpolation-filters:linearRGB;solid-color:#000000;solid-opacity:1;vector-effect:none;fill:#000000;fill-opacity:1;fill-rule:nonzero;stroke:none;stroke-width:0.26458335;stroke-linecap:round;stroke-linejoin:round;stroke-miterlimit:4;stroke-dasharray:none;stroke-dashoffset:0;stroke-opacity:1;paint-order:stroke fill markers;color-rendering:auto;image-rendering:auto;shape-rendering:auto;text-rendering:auto;enable-background:accumulate" d="m 3.0385743,291.70678 v 0.001 a 0.1323049,0.1323049 0 0 0 -0.074414,0.0274 L 1.940967,292.50259 H 1.190625 a 0.1323049,0.1323049 0 0 0 -0.1328084,0.13126 v 2.11719 a 0.1323049,0.1323049 0 0 0 0.1328084,0.1328 h 0.750342 l 1.0076902,0.75551 a 0.1323049,0.1323049 0 0 0 0.021188,0.0176 0.1323049,0.1323049 0 0 0 0.00414,0.002 0.1323049,0.1323049 0 0 0 0.00775,0.004 0.1323049,0.1323049 0 0 0 0.00414,0.002 0.1323049,0.1323049 0 0 0 0.00775,0.004 0.1323049,0.1323049 0 0 0 0.00362,0.002 0.1323049,0.1323049 0 0 0 0.00775,0.002 0.1323049,0.1323049 0 0 0 0.0062,0.002 0.1323049,0.1323049 0 0 0 0.00775,0.002 0.1323049,0.1323049 0 0 0 0.00362,0 0.1323049,0.1323049 0 0 0 0.00775,0.002 0.1323049,0.1323049 0 0 0 0.0062,0 0.1323049,0.1323049 0 0 0 0.00775,0 0.1323049,0.1323049 0 0 0 0.019637,-0.002 0.1323049,0.1323049 0 0 0 0.011369,-0.002 0.1323049,0.1323049 0 0 0 0.049093,-0.0233 0.1323049,0.1323049 0 0 0 0.00568,-0.004 0.1323049,0.1323049 0 0 0 0.00414,-0.004 0.1323049,0.1323049 0 0 0 0.00568,-0.006 0.1323049,0.1323049 0 0 0 0.00413,-0.004 0.1323049,0.1323049 0 0 0 0.00362,-0.006 0.1323049,0.1323049 0 0 0 0.00414,-0.004 0.1323049,0.1323049 0 0 0 0.00414,-0.008 0.1323049,0.1323049 0 0 0 0.00156,-0.004 0.1323049,0.1323049 0 0 0 0.00414,-0.008 0.1323049,0.1323049 0 0 0 0.00568,-0.0119 0.1323049,0.1323049 0 0 0 0.00206,-0.004 0.1323049,0.1323049 0 0 0 0.00206,-0.008 0.1323049,0.1323049 0 0 0 0.00206,-0.006 0.1323049,0.1323049 0 0 0 0.00206,-0.0512 v -3.68375 a 0.1323049,0.1323049 0 0 0 -0.1369425,-0.13281 z m 0.7849651,0.26665 a 0.13230492,0.13230492 0 0 0 0.013951,0.26355 c 0.805569,0 1.4546938,0.64839 1.4546917,1.44952 -1.1e-6,0.80112 -0.6491285,1.44694 -1.4546917,1.44694 a 0.132815,0.132815 0 1 0 0,0.26562 c 0.9479381,0 1.7182394,-0.76782 1.7182416,-1.71256 1.8e-6,-0.94475 -0.7703045,-1.71307 -1.7182416,-1.71307 a 0.13230492,0.13230492 0 0 0 -0.013951,0 z m -0.9141561,0.13281 v 3.1719 L 2.0639567,294.6451 a 0.1323049,0.1323049 0 0 0 -0.080098,-0.0269 H 1.3234334 v -1.85157 h 0.6604249 a 0.1323049,0.1323049 0 0 0 0.080098,-0.0258 z m 0.9146728,0.92552 a 0.1323049,0.1323049 0 0 0 -5.292e-4,5.3e-4 0.1323049,0.1323049 0 0 0 0.013965,0.26354 c 0.2223442,0 0.3984255,0.1759 0.3984255,0.39636 0,0.22044 -0.1760813,0.39635 -0.3984255,0.39635 a 0.132815,0.132815 0 1 0 0,0.26562 c 0.3647101,0 0.6619751,-0.29791 0.6619751,-0.66197 0,-0.36407 -0.297265,-0.65991 -0.6619751,-0.65991 a 0.1323049,0.1323049 0 0 0 -0.013435,-5.3e-4 z"/></g><text x="0" y="21.614583500000002" fill="#000000" font-size="5px" font-weight="bold" font-family="'Helvetica Neue', Helvetica, Arial-Unicode, Arial, Sans-serif">Created by Tino Arip Rianto</text><text x="0" y="26.614583500000002" fill="#000000" font-size="5px" font-weight="bold" font-family="'Helvetica Neue', Helvetica, Arial-Unicode, Arial, Sans-serif">from the Noun Project</text></svg>